<?xml version="1.0" encoding="iso-8859-1"?>
<!-- Uploaded to: SVG Repo, www.svgrepo.com, Generator: SVG Repo Mixer Tools -->
<svg fill="#000000" height="800px" width="800px" version="1.1" id="Layer_1" xmlns="http://www.w3.org/2000/svg" xmlns:xlink="http://www.w3.org/1999/xlink" 
	 viewBox="0 0 512 512" xml:space="preserve">
<g transform="translate(1 1)">
	<g>
		<g>
			<path d="M127,152.6c5.12,0,8.533-3.413,8.533-8.533c0-5.12-3.413-8.533-8.533-8.533s-8.533,3.413-8.533,8.533
				C118.467,149.187,121.88,152.6,127,152.6z"/>
			<path d="M323.267,485.4c-5.12,0-8.533,3.413-8.533,8.533s3.413,8.533,8.533,8.533s8.533-3.413,8.533-8.533
				S328.387,485.4,323.267,485.4z"/>
			<path d="M493.933,417.133c-5.12,0-8.533,3.413-8.533,8.533s3.413,8.533,8.533,8.533s8.533-3.413,8.533-8.533
				S499.053,417.133,493.933,417.133z"/>
			<path d="M434.2,195.267c5.12,0,8.533-3.413,8.533-8.533s-3.413-8.533-8.533-8.533s-8.533,3.413-8.533,8.533
				S429.08,195.267,434.2,195.267z"/>
			<path d="M476.867,33.133c5.12,0,8.533-3.413,8.533-8.533s-3.413-8.533-8.533-8.533s-8.533,3.413-8.533,8.533
				S471.747,33.133,476.867,33.133z"/>
			<path d="M323.267,348.867c0-21.685-4.26-42.365-11.97-61.265c-23.16-60.125-82.188-102.575-151.016-102.575
				c-17.92,0-35.84,3.413-53.76,9.387l-4.267,1.707l-0.289,1.737C41.662,221.478-1,280.152-1,348.867
				c0,27.741,6.959,53.842,19.218,76.665c0.116,0.335,0.247,0.667,0.408,0.989c2.007,3.601,4.148,7.097,6.393,10.506
				c27.012,41.642,72.616,70.078,125.094,73.594c0.034,0.002,0.067,0.004,0.101,0.006c1.592,0.106,3.19,0.188,4.794,0.247
				c0.34,0.013,0.68,0.028,1.021,0.039c1.695,0.052,3.395,0.088,5.103,0.088c1.086,0,2.166-0.016,3.244-0.041
				c11.451-0.224,22.611-1.625,33.359-4.101c2.852-0.572,5.722-1.186,8.623-1.831c0.487-0.244,0.955-0.526,1.402-0.834
				C274.603,484.18,323.267,422.254,323.267,348.867z M137.24,287.427c1.707,0.853,3.413,1.707,5.12,2.56
				c11.093,5.12,20.48,9.387,27.307,6.827c6.827-1.707,11.947-8.533,13.653-16.213c2.56-8.533,0-17.92-5.12-23.04
				c-0.853-0.853,0-3.413,0-3.413c0.853,0.853,1.707,0.853,3.413,3.413c5.12,5.12,11.093,6.827,17.92,4.267
				c11.947-3.413,19.627-18.773,21.333-31.573c0.853-3.413,0.853-7.68,0-11.093c44.373,19.627,76.8,62.293,82.773,113.493h-3.413
				c-5.12-4.267-12.8-10.24-21.333-7.68c-11.093,4.267-12.8,17.92-14.507,29.013c0,2.56-0.853,5.973-0.853,6.827
				c-3.413,5.12-7.68,7.68-12.8,7.68c-11.093,0-23.893-10.24-30.72-20.48c-0.853-1.707-0.853-4.267-1.707-6.827
				c-0.853-5.12-1.707-11.093-7.68-14.507c-2.56-0.853-4.267-1.707-6.827-1.707c-4.267,0-9.387,1.707-15.36,2.56l-1.707,0.853
				c-13.653,5.973-13.653,5.973-20.48,0.853c-1.707-1.707-2.56-3.413-3.413-5.973c-1.707-5.973-6.827-18.773-26.453-13.653
				c-1.707,0-2.56,0.853-3.413,0.853C136.387,304.493,138.947,296.813,137.24,287.427z M109.08,227.693
				c2.56-4.267,5.973-9.387,7.68-15.36c23.04-6.827,47.787-8.533,69.973-5.12c0,0.853-0.853,0.853-0.853,0.853
				c-5.12,2.56-13.653,5.973-16.213,5.973c-14.507,0-26.453,8.533-36.693,15.36c-5.12,3.413-9.387,6.827-14.507,9.387
				c-4.267,2.56-7.68-0.853-8.533-1.707C108.227,234.52,106.52,231.107,109.08,227.693z M186.733,442.733h30.72l-4.267,12.8
				l-15.36,15.36c-1.707,1.707-2.56,3.413-2.56,5.973v12.8c-11.093,2.56-23.04,4.267-34.133,4.267c-1.472,0-2.941-0.027-4.407-0.072
				c-0.295-0.009-0.588-0.023-0.882-0.033c-1.312-0.048-2.622-0.109-3.928-0.193c-0.105-0.007-0.21-0.013-0.314-0.02
				c-41.835-2.781-80.499-23.742-105.91-56.824c-0.184-0.241-0.371-0.48-0.554-0.722c-0.404-0.533-0.795-1.077-1.192-1.617
				c-2.292-3.135-4.463-6.364-6.502-9.683l17.876-17.876l15.36-7.68l29.867-7.68l10.24,6.827c0,0.853,0,0.853,0.853,0.853
				l20.48,8.533c0.853,0.853,2.56,0.853,3.413,0.853h23.893l18.773,5.973V434.2C178.2,439.32,181.613,442.733,186.733,442.733z
				 M212.333,484.654v-4.374l14.507-15.36c0.853-0.853,1.707-2.56,1.707-3.413l8.533-25.6c0.853-2.56,0.853-5.12-0.853-7.68
				c-1.707-1.707-4.267-3.413-6.827-3.413h-34.133v-17.067c0-3.413-2.56-6.827-5.973-7.68l-25.6-8.533
				c-0.853-0.853-1.707-0.853-2.56-0.853H137.24L118.467,383l-12.8-7.68c-2.56-0.853-4.267-1.707-6.827-0.853L64.707,383
				c-0.853,0-0.853,0.853-1.707,0.853l-17.067,8.533c-0.853,0.853-1.707,0.853-2.56,1.707l-14.509,14.509
				c-8.223-18.21-12.798-38.431-12.798-59.736c0-55.137,30.643-103.016,75.853-127.564c-2.752,8.224-1.015,17.39,5.213,24.31
				c7.68,8.533,18.773,11.093,29.013,5.973c5.973-3.413,11.947-6.827,17.067-11.093c8.533-5.973,17.067-11.947,26.453-11.947
				c6.827,0,14.507-3.413,23.04-6.827c4.267-0.853,9.387-3.413,11.947-4.267c2.56,3.413,1.707,10.24,0.853,11.947
				c-2.56,8.533-7.68,14.507-10.24,14.507c-11.093-10.24-20.48-7.68-26.453-2.56c-6.827,6.827-8.533,19.627-1.707,27.307
				c1.707,1.707,2.56,5.12,1.707,7.68c0,1.707-1.707,3.413-2.56,4.267c-2.56-0.853-10.24-4.267-14.507-5.973
				c-11.947-5.12-21.333-10.24-28.16-3.413c-5.973,5.973-1.707,14.507-0.853,17.067c2.56,6.827-0.853,13.653-5.12,20.48
				c-3.413,5.12-6.827,11.093-2.56,17.067c4.267,6.827,13.653,5.12,27.307,1.707c3.413-0.853,5.12-0.853,5.12-0.853
				c0.853,0.853,1.707,2.56,1.707,3.413c1.707,4.267,3.413,9.387,8.533,13.653c13.653,11.093,18.773,9.387,37.547,0.853l2.56-1.707
				c1.707-0.853,3.413-1.707,4.267-1.707v0.853c0,4.267,0.853,9.387,4.267,13.653c8.533,13.653,26.453,28.16,45.227,28.16
				c8.533,0,19.627-2.56,28.16-16.213c1.707-2.56,2.56-6.827,3.413-12.8c0-3.413,0.853-10.24,2.56-13.653
				c0.853,0.853,3.413,1.707,5.973,5.12l2.56,2.56H306.2C306.2,411.048,267.223,463.99,212.333,484.654z"/>
			<path d="M297.667-1C245.613-1,203.8,40.813,203.8,92.867c0,20.831,6.702,40.018,18.071,55.546
				c0.388,0.74,0.883,1.395,1.471,1.956c17.13,22.157,43.986,36.365,74.325,36.365c52.053,0,93.867-41.813,93.867-93.867
				C391.533,40.813,349.72-1,297.667-1z M297.667,169.667c-18.438,0-35.275-6.384-48.46-17.067h48.46
				c5.12,0,8.533-3.413,8.533-8.533c0-5.12-3.413-8.533-8.533-8.533h-63.995c-6.619-9.956-10.964-21.571-12.331-34.133h42.193
				c5.12,0,8.533-3.413,8.533-8.533c0-5.12-3.413-8.533-8.533-8.533h-42.193c0.994-9.135,3.566-17.766,7.441-25.626
				c0.205,0.011,0.408,0.026,0.619,0.026h85.333c5.12,0,8.533-3.413,8.533-8.533s-3.413-8.533-8.533-8.533h-74.469
				c14.027-15.737,34.478-25.6,57.402-25.6c33.672,0,62.012,21.266,72.473,51.2h-21.273c-5.12,0-8.533,3.413-8.533,8.533
				s3.413,8.533,8.533,8.533h25.126c0.305,2.802,0.474,5.646,0.474,8.533c0,5.876-0.669,11.581-1.897,17.067h-49.303
				c-5.12,0-8.533,3.413-8.533,8.533s3.413,8.533,8.533,8.533h43.299C354.076,152.361,328.04,169.667,297.667,169.667z"/>
			<path d="M511,306.2c0-33.28-26.453-59.733-59.733-59.733c-33.28,0-59.733,26.453-59.733,59.733s26.453,59.733,59.733,59.733
				C484.547,365.933,511,339.48,511,306.2z M451.267,348.867c-23.893,0-42.667-18.773-42.667-42.667c0-2.93,0.286-5.782,0.825-8.533
				H434.2c5.12,0,8.533-3.413,8.533-8.533s-3.413-8.533-8.533-8.533h-17.27c7.715-10.418,20.118-17.067,34.336-17.067
				c23.893,0,42.667,18.773,42.667,42.667c0,2.93-0.286,5.782-0.825,8.533h-24.775c-5.12,0-8.533,3.413-8.533,8.533
				s3.413,8.533,8.533,8.533h17.27C477.888,342.218,465.484,348.867,451.267,348.867z"/>
			<path d="M7.533,58.733h13.653l20.48,20.48v13.653c0,5.12,3.413,8.533,8.533,8.533s8.533-3.413,8.533-8.533V79.213l20.48-20.48
				h13.653c5.12,0,8.533-3.413,8.533-8.533s-3.413-8.533-8.533-8.533H79.213l-20.48-20.48V7.533C58.733,2.413,55.32-1,50.2-1
				s-8.533,3.413-8.533,8.533v13.653l-20.48,20.48H7.533C2.413,41.667-1,45.08-1,50.2S2.413,58.733,7.533,58.733z M50.2,36.547
				L63.853,50.2L50.2,63.853L36.547,50.2L50.2,36.547z"/>
		</g>
	</g>
</g>
</svg>